<svg width="50" height="50" viewBox="0 0 50 50" fill="none" xmlns="http://www.w3.org/2000/svg">
<rect x="0.5" y="0.5" width="49" height="49" rx="14.5" fill="#383636"/>
<rect x="0.5" y="0.5" width="49" height="49" rx="14.5" stroke="#ACA8A8"/>
<path fill-rule="evenodd" clip-rule="evenodd" d="M21.5579 11.0195C20.1815 11.1018 18.5871 11.5405 17.2724 12.1987C14.2301 13.7217 11.9871 16.568 11.2551 19.8345C11.0347 20.8182 11.0006 21.157 11 22.3681C10.9994 23.5816 11.0449 23.9977 11.2947 25.0637C12.0124 28.1259 14.1537 30.8871 17.0067 32.4289C18.6828 33.3347 20.3907 33.757 22.3782 33.7573C24.5586 33.7575 26.4599 33.2256 28.3226 32.0942L28.7392 31.8412L32.1525 35.249C35.7412 38.832 35.6777 38.7744 36.2149 38.9337C36.5001 39.0184 37.1751 39.0228 37.4418 38.9419C38.129 38.7334 38.703 38.1685 38.9106 37.4966C39.0806 36.9462 39.0032 36.2276 38.7205 35.7331C38.6457 35.6021 37.4233 34.348 35.2182 32.1399L31.8309 28.7479L32.0908 28.3127C32.7015 27.29 33.1535 26.2036 33.4204 25.1167C34.1858 22.0003 33.6228 18.7488 31.8632 16.1227C31.3653 15.3795 31.0235 14.9651 30.3715 14.314C28.466 12.4113 26.0599 11.2849 23.3667 11.0348C22.9438 10.9955 22.0808 10.9882 21.5579 11.0195ZM23.5646 15.4948C26.1357 15.9554 28.2805 17.873 29.0242 20.3761C29.2455 21.1208 29.2933 21.4843 29.2942 22.4312C29.2949 23.1721 29.2816 23.3554 29.1995 23.7349C28.6513 26.2685 26.9256 28.2122 24.4918 29.0373C23.756 29.2868 23.3295 29.3478 22.3151 29.3487C21.5045 29.3494 21.3336 29.3374 20.9377 29.2523C19.5648 28.957 18.4479 28.3647 17.4456 27.4005C16.0008 26.0105 15.2411 24.0964 15.3231 22.0527C15.4612 18.6117 18.1535 15.7803 21.642 15.4072C22.1254 15.3555 23.013 15.396 23.5646 15.4948Z" fill="#ACA8A8"/>
</svg>
