<svg xmlns="http://www.w3.org/2000/svg" style="display: none;">
  <!-- Иконка ИИ Импорта -->
  <symbol id="IconAIImport" viewBox="0 0 45 37">
    <path fill-rule="evenodd" clip-rule="evenodd" d="M20.8515 0.224526C19.4505 0.482003 18.3399 1.35898 17.8019 2.63261C17.6811 2.91853 17.5505 3.38964 17.5251 3.63037C17.5146 3.72941 17.491 3.74488 17.2028 3.84147C16.5413 4.0631 15.9847 4.40063 15.4696 4.89253C15.066 5.2779 14.7785 5.67357 14.5234 6.19512C14.0688 7.12444 13.9472 8.08382 14.1554 9.09961C14.1921 9.27871 14.22 9.42659 14.2174 9.42827C14.2149 9.42996 14.0419 9.48469 13.8331 9.54994C11.8068 10.1829 10.4718 12.1369 10.6374 14.2272C10.6751 14.7042 10.7632 15.1193 10.9083 15.5045C11.0337 15.8376 11.3121 16.3696 11.4669 16.5724C11.5824 16.7235 11.6012 16.8115 11.5181 16.8115C11.4487 16.8115 10.9283 17.1301 10.617 17.3632C9.61994 18.1097 8.86338 19.2178 8.5284 20.4222L8.44683 20.7155L4.68189 20.7248C1.36916 20.733 0.916954 20.7407 0.916954 20.789C0.916954 20.8272 0.878075 20.8438 0.78858 20.8438C0.698939 20.8438 0.660207 20.8603 0.660207 20.8988C0.660207 20.9293 0.6276 20.9537 0.58685 20.9537C0.546101 20.9537 0.513494 20.9782 0.513494 21.0087C0.513494 21.039 0.488736 21.0637 0.458477 21.0637C0.427924 21.0637 0.40346 21.0963 0.40346 21.137C0.40346 21.1859 0.378995 21.2103 0.330103 21.2103C0.289354 21.2103 0.256747 21.2348 0.256747 21.2653C0.256747 21.2959 0.22414 21.3203 0.183391 21.3203C0.124009 21.3203 0.110034 21.3448 0.110034 21.4486C0.110034 21.5382 0.0934559 21.5769 0.0550172 21.5769C0.00997645 21.5769 0 21.64 0 21.9251C0 22.2103 0.00997645 22.2734 0.0550172 22.2734C0.0934559 22.2734 0.110034 22.3121 0.110034 22.4017C0.110034 22.5055 0.124009 22.53 0.183391 22.53C0.22414 22.53 0.256747 22.5544 0.256747 22.585C0.256747 22.6155 0.289354 22.6399 0.330103 22.6399C0.370853 22.6399 0.40346 22.6644 0.40346 22.6949C0.40346 22.7252 0.428217 22.7499 0.458477 22.7499C0.48903 22.7499 0.513494 22.7825 0.513494 22.8232C0.513494 22.8721 0.537958 22.8965 0.58685 22.8965C0.6276 22.8965 0.660207 22.921 0.660207 22.9515C0.660207 22.9899 0.698939 23.0065 0.78858 23.0065C0.878221 23.0065 0.916954 23.0231 0.916954 23.0615C0.916954 23.092 0.94956 23.1165 0.99031 23.1165C1.03106 23.1165 1.06367 23.1409 1.06367 23.1715C1.06367 23.22 1.49959 23.2264 4.76673 23.2264H8.46983L8.50944 23.3822C8.91356 24.9707 10.058 26.3641 11.5579 27.0938C11.7317 27.1784 11.9094 27.2568 11.9529 27.2682C12.0202 27.2858 12.0264 27.3014 11.9945 27.3746C11.8011 27.8191 11.7187 28.8804 11.8267 29.5359C12.1234 31.3364 13.4338 32.7711 15.2131 33.2434C15.6219 33.3519 15.6778 33.3576 16.3401 33.3583C16.858 33.3588 17.0966 33.344 17.269 33.3006C17.4352 33.2588 17.5043 33.254 17.5125 33.2838C17.5188 33.3067 17.5518 33.4656 17.5859 33.6369C17.8519 34.9748 18.8507 36.1256 20.1462 36.5872C21.6404 37.1197 23.2521 36.7427 24.3726 35.5988C24.8935 35.0671 25.2394 34.4393 25.4273 33.6846L25.5077 33.362L25.5195 18.8093C25.5275 8.87179 25.5191 4.12798 25.4929 3.85097C25.4718 3.62784 25.422 3.32095 25.3821 3.16901C25.0399 1.86326 24.037 0.795197 22.7566 0.372766C22.1798 0.182518 21.4073 0.122401 20.8515 0.224526ZM31.1948 0.222291C29.5942 0.471152 28.3183 1.65798 27.902 3.28524L27.8223 3.59683L27.8106 18.2411C27.8021 28.8511 27.8102 32.9854 27.8398 33.2481C28.0805 35.3791 29.9133 36.9291 32.0567 36.8143C32.7382 36.7777 33.4731 36.5311 34.0669 36.1397C34.3705 35.9396 34.8828 35.4335 35.1007 35.1185C35.2046 34.9683 35.3635 34.6894 35.4539 34.4988C35.6075 34.1748 35.7979 33.5463 35.7979 33.3634C35.7979 33.319 35.8066 33.2739 35.8172 33.2633C35.8278 33.2527 35.9392 33.2697 36.0648 33.3012C36.2294 33.3425 36.4821 33.3587 36.9716 33.3597C37.6983 33.3609 37.966 33.318 38.5558 33.1053C39.7546 32.6732 40.795 31.6496 41.2633 30.4417C41.5946 29.5873 41.6465 28.4543 41.3943 27.5841L41.3086 27.2884L41.4233 27.2493C41.4864 27.2278 41.688 27.1327 41.8714 27.0379C43.1256 26.3898 44.0854 25.337 44.596 24.0492C45.2945 22.2875 45.0799 20.3363 44.0096 18.7177C43.5695 18.0519 42.6812 17.2547 41.969 16.8861C41.8429 16.8209 41.7397 16.7631 41.7397 16.7577C41.7397 16.7523 41.8165 16.6344 41.9104 16.4956C42.1223 16.1826 42.4023 15.5937 42.5011 15.2536C42.6586 14.7118 42.699 14.442 42.699 13.9344C42.699 11.8926 41.3872 10.1209 39.4376 9.52952C39.2156 9.46218 39.1036 9.41097 39.1147 9.38186C39.2608 9.0014 39.3014 7.99441 39.1949 7.39442C39.0272 6.45054 38.5996 5.63856 37.909 4.95312C37.3711 4.41925 36.8118 4.07113 36.117 3.83777L35.8184 3.73751L35.7562 3.4289C35.4198 1.75747 34.1487 0.519356 32.4674 0.225443C32.092 0.159791 31.6045 0.158618 31.1948 0.222291ZM18.0823 16.0967C18.0823 16.1418 18.1455 16.1517 18.4308 16.1517C18.716 16.1517 18.7792 16.1617 18.7792 16.2067C18.7792 16.2489 18.8261 16.2617 18.9809 16.2617C19.1358 16.2617 19.1827 16.2744 19.1827 16.3167C19.1827 16.3469 19.2074 16.3717 19.2377 16.3717C19.2682 16.3717 19.2927 16.4042 19.2927 16.445C19.2927 16.4938 19.3172 16.5183 19.3661 16.5183C19.4068 16.5183 19.4394 16.5427 19.4394 16.5733C19.4394 16.6038 19.472 16.6283 19.5128 16.6283C19.5535 16.6283 19.5861 16.6527 19.5861 16.6832C19.5861 16.7138 19.6187 16.7382 19.6595 16.7382C19.7002 16.7382 19.7328 16.7627 19.7328 16.7932C19.7328 16.8235 19.7576 16.8482 19.7879 16.8482C19.8184 16.8482 19.8429 16.8808 19.8429 16.9215C19.8429 16.9704 19.8673 16.9948 19.9162 16.9948C19.957 16.9948 19.9896 17.0193 19.9896 17.0498C19.9896 17.0803 20.0222 17.1048 20.0629 17.1048C20.1037 17.1048 20.1363 17.1292 20.1363 17.1598C20.1363 17.19 20.1611 17.2148 20.1913 17.2148C20.2219 17.2148 20.2463 17.2474 20.2463 17.2881C20.2463 17.3369 20.2708 17.3614 20.3197 17.3614C20.3604 17.3614 20.393 17.3858 20.393 17.4164C20.393 17.4469 20.4257 17.4714 20.4664 17.4714C20.5072 17.4714 20.5398 17.4958 20.5398 17.5263C20.5398 17.5566 20.5645 17.5813 20.5948 17.5813C20.625 17.5813 20.6498 17.6061 20.6498 17.6363C20.6498 17.6668 20.6824 17.6913 20.7232 17.6913C20.772 17.6913 20.7965 17.7157 20.7965 17.7646C20.7965 17.8135 20.821 17.8379 20.8699 17.8379C20.9106 17.8379 20.9432 17.8624 20.9432 17.8929C20.9432 17.9232 20.968 17.9479 20.9982 17.9479C21.0285 17.9479 21.0533 17.9726 21.0533 18.0029C21.0533 18.0334 21.0859 18.0579 21.1266 18.0579C21.1755 18.0579 21.2 18.0823 21.2 18.1312C21.2 18.18 21.2244 18.2045 21.2733 18.2045C21.3141 18.2045 21.3467 18.2289 21.3467 18.2595C21.3467 18.29 21.3793 18.3145 21.42 18.3145C21.4608 18.3145 21.4934 18.3389 21.4934 18.3694C21.4934 18.3997 21.5181 18.4244 21.5484 18.4244C21.5787 18.4244 21.6034 18.4492 21.6034 18.4794C21.6034 18.51 21.636 18.5344 21.6768 18.5344C21.7257 18.5344 21.7501 18.5589 21.7501 18.6077C21.7501 18.6566 21.7746 18.681 21.8235 18.681C21.8642 18.681 21.8969 18.7055 21.8969 18.736C21.8969 18.7663 21.9216 18.791 21.9519 18.791C21.9821 18.791 22.0069 18.8157 22.0069 18.846C22.0069 18.8765 22.0395 18.901 22.0802 18.901C22.1291 18.901 22.1536 18.9254 22.1536 18.9743C22.1536 19.0231 22.1781 19.0476 22.227 19.0476C22.2677 19.0476 22.3003 19.072 22.3003 19.1026C22.3003 19.1328 22.3251 19.1576 22.3553 19.1576C22.3856 19.1576 22.4103 19.1823 22.4103 19.2125C22.4103 19.2431 22.443 19.2675 22.4837 19.2675C22.5245 19.2675 22.5571 19.292 22.5571 19.3225C22.5571 19.3531 22.5897 19.3775 22.6304 19.3775C22.6793 19.3775 22.7038 19.402 22.7038 19.4508C22.7038 19.4915 22.7282 19.5241 22.7588 19.5241C22.789 19.5241 22.8138 19.5489 22.8138 19.5791C22.8138 19.6097 22.8464 19.6341 22.8872 19.6341C22.9279 19.6341 22.9605 19.6586 22.9605 19.6891C22.9605 19.7196 22.9931 19.7441 23.0339 19.7441C23.0828 19.7441 23.1072 19.7685 23.1072 19.8174C23.1072 19.8581 23.1317 19.8907 23.1622 19.8907C23.1925 19.8907 23.2173 19.9154 23.2173 19.9457C23.2173 19.9762 23.2499 20.0007 23.2906 20.0007C23.3314 20.0007 23.364 20.0251 23.364 20.0557C23.364 20.0862 23.3966 20.1106 23.4373 20.1106C23.4781 20.1106 23.5107 20.1351 23.5107 20.1656C23.5107 20.1962 23.5433 20.2206 23.584 20.2206C23.6329 20.2206 23.6574 20.2451 23.6574 20.2939C23.6574 20.3346 23.6819 20.3672 23.7124 20.3672C23.7427 20.3672 23.7674 20.392 23.7674 20.4222C23.7674 20.4528 23.8 20.4772 23.8408 20.4772C23.8815 20.4772 23.9141 20.5017 23.9141 20.5322C23.9141 20.5627 23.9468 20.5872 23.9875 20.5872C24.0364 20.5872 24.0609 20.6116 24.0609 20.6605C24.0609 20.7012 24.0853 20.7338 24.1159 20.7338C24.1461 20.7338 24.1709 20.7585 24.1709 20.7888C24.1709 20.8193 24.2035 20.8438 24.2443 20.8438C24.285 20.8438 24.3176 20.8682 24.3176 20.8988C24.3176 20.9293 24.3502 20.9537 24.391 20.9537C24.4317 20.9537 24.4643 20.9782 24.4643 21.0087C24.4643 21.039 24.4891 21.0637 24.5193 21.0637C24.5499 21.0637 24.5744 21.0963 24.5744 21.137C24.5744 21.1859 24.5988 21.2103 24.6477 21.2103C24.6885 21.2103 24.7211 21.2348 24.7211 21.2653C24.7211 21.2959 24.7537 21.3203 24.7944 21.3203C24.858 21.3203 24.8678 21.3448 24.8678 21.5036C24.8678 21.6421 24.8812 21.6869 24.9228 21.6869C24.9678 21.6869 24.9778 21.75 24.9778 22.0351C24.9778 22.3202 24.9678 22.3833 24.9228 22.3833C24.8844 22.3833 24.8678 22.4221 24.8678 22.5116C24.8678 22.6155 24.8538 22.6399 24.7944 22.6399C24.7537 22.6399 24.7211 22.6644 24.7211 22.6949C24.7211 22.7255 24.6885 22.7499 24.6477 22.7499C24.5988 22.7499 24.5744 22.7744 24.5744 22.8232C24.5744 22.864 24.5499 22.8965 24.5193 22.8965C24.4891 22.8965 24.4643 22.9213 24.4643 22.9515C24.4643 22.9821 24.4317 23.0065 24.391 23.0065C24.3502 23.0065 24.3176 23.031 24.3176 23.0615C24.3176 23.092 24.285 23.1165 24.2443 23.1165C24.2035 23.1165 24.1709 23.1409 24.1709 23.1715C24.1709 23.2017 24.1461 23.2264 24.1159 23.2264C24.0853 23.2264 24.0609 23.259 24.0609 23.2998C24.0609 23.3486 24.0364 23.3731 23.9875 23.3731C23.9468 23.3731 23.9141 23.3975 23.9141 23.4281C23.9141 23.4586 23.8815 23.483 23.8408 23.483C23.8 23.483 23.7674 23.5075 23.7674 23.538C23.7674 23.5683 23.7427 23.593 23.7124 23.593C23.6819 23.593 23.6574 23.6256 23.6574 23.6663C23.6574 23.7152 23.6329 23.7396 23.584 23.7396C23.5433 23.7396 23.5107 23.7641 23.5107 23.7946C23.5107 23.8252 23.4781 23.8496 23.4373 23.8496C23.3966 23.8496 23.364 23.8741 23.364 23.9046C23.364 23.9351 23.3314 23.9596 23.2906 23.9596C23.2499 23.9596 23.2173 23.984 23.2173 24.0146C23.2173 24.0448 23.1925 24.0696 23.1622 24.0696C23.1317 24.0696 23.1072 24.1021 23.1072 24.1429C23.1072 24.1917 23.0828 24.2162 23.0339 24.2162C22.9931 24.2162 22.9605 24.2406 22.9605 24.2712C22.9605 24.3017 22.9279 24.3261 22.8872 24.3261C22.8464 24.3261 22.8138 24.3506 22.8138 24.3811C22.8138 24.4114 22.789 24.4361 22.7588 24.4361C22.7282 24.4361 22.7038 24.4687 22.7038 24.5094C22.7038 24.5583 22.6793 24.5827 22.6304 24.5827C22.5897 24.5827 22.5571 24.6072 22.5571 24.6377C22.5571 24.6683 22.5245 24.6927 22.4837 24.6927C22.443 24.6927 22.4103 24.7172 22.4103 24.7477C22.4103 24.7779 22.3856 24.8027 22.3553 24.8027C22.3251 24.8027 22.3003 24.8274 22.3003 24.8577C22.3003 24.8882 22.2677 24.9127 22.227 24.9127C22.1781 24.9127 22.1536 24.9371 22.1536 24.986C22.1536 25.0348 22.1291 25.0593 22.0802 25.0593C22.0395 25.0593 22.0069 25.0837 22.0069 25.1143C22.0069 25.1445 21.9821 25.1693 21.9519 25.1693C21.9216 25.1693 21.8969 25.194 21.8969 25.2242C21.8969 25.2548 21.8642 25.2792 21.8235 25.2792C21.7746 25.2792 21.7501 25.3037 21.7501 25.3525C21.7501 25.4014 21.7257 25.4258 21.6768 25.4258C21.636 25.4258 21.6034 25.4503 21.6034 25.4808C21.6034 25.5111 21.5787 25.5358 21.5484 25.5358C21.5181 25.5358 21.4934 25.5606 21.4934 25.5908C21.4934 25.6213 21.4608 25.6458 21.42 25.6458C21.3793 25.6458 21.3467 25.6702 21.3467 25.7008C21.3467 25.7313 21.3141 25.7558 21.2733 25.7558C21.2244 25.7558 21.2 25.7802 21.2 25.8291C21.2 25.8779 21.1755 25.9024 21.1266 25.9024C21.0859 25.9024 21.0533 25.9268 21.0533 25.9574C21.0533 25.9876 21.0285 26.0124 20.9982 26.0124C20.968 26.0124 20.9432 26.0371 20.9432 26.0673C20.9432 26.0979 20.9106 26.1223 20.8699 26.1223C20.821 26.1223 20.7965 26.1468 20.7965 26.1956C20.7965 26.2445 20.772 26.2689 20.7232 26.2689C20.6824 26.2689 20.6498 26.2934 20.6498 26.3239C20.6498 26.3542 20.625 26.3789 20.5948 26.3789C20.5645 26.3789 20.5398 26.4037 20.5398 26.4339C20.5398 26.4644 20.5072 26.4889 20.4664 26.4889C20.4257 26.4889 20.393 26.5133 20.393 26.5439C20.393 26.5744 20.3604 26.5989 20.3197 26.5989C20.2708 26.5989 20.2463 26.6233 20.2463 26.6722C20.2463 26.7129 20.2219 26.7455 20.1913 26.7455C20.1611 26.7455 20.1363 26.7702 20.1363 26.8005C20.1363 26.831 20.1037 26.8555 20.0629 26.8555C20.0222 26.8555 19.9896 26.8799 19.9896 26.9104C19.9896 26.941 19.957 26.9654 19.9162 26.9654C19.8755 26.9654 19.8429 26.9899 19.8429 27.0204C19.8429 27.0507 19.8181 27.0754 19.7879 27.0754C19.7573 27.0754 19.7328 27.108 19.7328 27.1487C19.7328 27.1976 19.7084 27.222 19.6595 27.222C19.6187 27.222 19.5861 27.2465 19.5861 27.277C19.5861 27.3075 19.5535 27.332 19.5128 27.332C19.472 27.332 19.4394 27.3564 19.4394 27.387C19.4394 27.4254 19.4007 27.442 19.311 27.442C19.2071 27.442 19.1827 27.4559 19.1827 27.5153C19.1827 27.5797 19.1582 27.5886 18.9809 27.5886C18.8261 27.5886 18.7792 27.6013 18.7792 27.6436C18.7792 27.6876 18.7242 27.6986 18.5041 27.6986C18.2841 27.6986 18.229 27.7096 18.229 27.7535C18.229 27.7991 18.1598 27.8085 17.8256 27.8085C17.4914 27.8085 17.4221 27.7991 17.4221 27.7535C17.4221 27.7138 17.3814 27.6986 17.2754 27.6986C17.1694 27.6986 17.1287 27.6833 17.1287 27.6436C17.1287 27.6052 17.09 27.5886 17.0003 27.5886C16.8964 27.5886 16.8719 27.5746 16.8719 27.5153C16.8719 27.4664 16.8475 27.442 16.7986 27.442C16.7578 27.442 16.7252 27.4175 16.7252 27.387C16.7252 27.3567 16.7005 27.332 16.6702 27.332C16.64 27.332 16.6152 27.3072 16.6152 27.277C16.6152 27.2465 16.5826 27.222 16.5418 27.222C16.493 27.222 16.4685 27.1976 16.4685 27.1487C16.4685 27.0998 16.444 27.0754 16.3951 27.0754C16.3544 27.0754 16.3218 27.0509 16.3218 27.0204C16.3218 26.9902 16.297 26.9654 16.2668 26.9654C16.2301 26.9654 16.2117 26.9288 16.2117 26.8555C16.2117 26.7699 16.1955 26.7455 16.1384 26.7455C16.0708 26.7455 16.065 26.721 16.065 26.4339C16.065 26.1468 16.0708 26.1223 16.1384 26.1223C16.1955 26.1223 16.2117 26.0979 16.2117 26.0124C16.2117 25.939 16.2301 25.9024 16.2668 25.9024C16.2973 25.9024 16.3218 25.8698 16.3218 25.8291C16.3218 25.7802 16.3462 25.7558 16.3951 25.7558C16.4359 25.7558 16.4685 25.7313 16.4685 25.7008C16.4685 25.6702 16.5011 25.6458 16.5418 25.6458C16.5826 25.6458 16.6152 25.6213 16.6152 25.5908C16.6152 25.5606 16.64 25.5358 16.6702 25.5358C16.7005 25.5358 16.7252 25.5111 16.7252 25.4808C16.7252 25.4503 16.7578 25.4258 16.7986 25.4258C16.8475 25.4258 16.8719 25.4014 16.8719 25.3525C16.8719 25.3037 16.8964 25.2792 16.9453 25.2792C16.9861 25.2792 17.0187 25.2548 17.0187 25.2242C17.0187 25.194 17.0434 25.1693 17.0737 25.1693C17.1039 25.1693 17.1287 25.1445 17.1287 25.1143C17.1287 25.0837 17.1613 25.0593 17.202 25.0593C17.2509 25.0593 17.2754 25.0348 17.2754 24.986C17.2754 24.9371 17.2999 24.9127 17.3488 24.9127C17.3895 24.9127 17.4221 24.8882 17.4221 24.8577C17.4221 24.8274 17.4469 24.8027 17.4771 24.8027C17.5074 24.8027 17.5322 24.7779 17.5322 24.7477C17.5322 24.7172 17.5648 24.6927 17.6055 24.6927C17.6463 24.6927 17.6789 24.6683 17.6789 24.6377C17.6789 24.6072 17.7115 24.5827 17.7522 24.5827C17.8011 24.5827 17.8256 24.5583 17.8256 24.5094C17.8256 24.4606 17.85 24.4361 17.8989 24.4361C17.9397 24.4361 17.9723 24.4117 17.9723 24.3811C17.9723 24.3509 17.997 24.3261 18.0273 24.3261C18.0576 24.3261 18.0823 24.3014 18.0823 24.2712C18.0823 24.2406 18.1149 24.2162 18.1557 24.2162C18.2046 24.2162 18.229 24.1917 18.229 24.1429C18.229 24.094 18.2535 24.0696 18.3024 24.0696C18.3431 24.0696 18.3757 24.0451 18.3757 24.0146C18.3757 23.9843 18.4005 23.9596 18.4308 23.9596C18.461 23.9596 18.4858 23.9348 18.4858 23.9046C18.4858 23.8741 18.5184 23.8496 18.5591 23.8496C18.5999 23.8496 18.6325 23.8252 18.6325 23.7946C18.6325 23.7641 18.6651 23.7396 18.7059 23.7396C18.7547 23.7396 18.7792 23.7152 18.7792 23.6663C18.7792 23.6256 18.8037 23.593 18.8342 23.593C18.8645 23.593 18.8892 23.5683 18.8892 23.538C18.8892 23.5075 18.9219 23.483 18.9626 23.483C19.0033 23.483 19.036 23.4586 19.036 23.4281C19.036 23.3975 19.0686 23.3731 19.1093 23.3731C19.1582 23.3731 19.1827 23.3486 19.1827 23.2998C19.1827 23.2268 19.1582 23.2264 13.901 23.2264H8.61936V21.9801V20.7338H13.956C19.2682 20.7338 19.2927 20.7335 19.2927 20.6605C19.2927 20.6198 19.2682 20.5872 19.2377 20.5872C19.2074 20.5872 19.1827 20.5624 19.1827 20.5322C19.1827 20.5017 19.1501 20.4772 19.1093 20.4772C19.0686 20.4772 19.036 20.4528 19.036 20.4222C19.036 20.3917 19.0033 20.3672 18.9626 20.3672C18.9137 20.3672 18.8892 20.3428 18.8892 20.2939C18.8892 20.2532 18.8648 20.2206 18.8342 20.2206C18.804 20.2206 18.7792 20.1959 18.7792 20.1656C18.7792 20.1351 18.7466 20.1106 18.7059 20.1106C18.6651 20.1106 18.6325 20.0862 18.6325 20.0557C18.6325 20.0251 18.5999 20.0007 18.5591 20.0007C18.5184 20.0007 18.4858 19.9762 18.4858 19.9457C18.4858 19.9154 18.461 19.8907 18.4308 19.8907C18.4002 19.8907 18.3757 19.8581 18.3757 19.8174C18.3757 19.7685 18.3513 19.7441 18.3024 19.7441C18.2616 19.7441 18.229 19.7196 18.229 19.6891C18.229 19.6586 18.1964 19.6341 18.1557 19.6341C18.1149 19.6341 18.0823 19.6097 18.0823 19.5791C18.0823 19.5489 18.0576 19.5241 18.0273 19.5241C17.9968 19.5241 17.9723 19.4915 17.9723 19.4508C17.9723 19.402 17.9478 19.3775 17.8989 19.3775C17.8582 19.3775 17.8256 19.3531 17.8256 19.3225C17.8256 19.292 17.793 19.2675 17.7522 19.2675C17.7115 19.2675 17.6789 19.2431 17.6789 19.2125C17.6789 19.182 17.6463 19.1576 17.6055 19.1576C17.5648 19.1576 17.5322 19.1331 17.5322 19.1026C17.5322 19.0723 17.5074 19.0476 17.4771 19.0476C17.4466 19.0476 17.4221 19.015 17.4221 18.9743C17.4221 18.9254 17.3977 18.901 17.3488 18.901C17.308 18.901 17.2754 18.8765 17.2754 18.846C17.2754 18.8154 17.2428 18.791 17.202 18.791C17.1613 18.791 17.1287 18.7665 17.1287 18.736C17.1287 18.7058 17.1039 18.681 17.0737 18.681C17.0431 18.681 17.0187 18.6484 17.0187 18.6077C17.0187 18.5589 16.9942 18.5344 16.9453 18.5344C16.9046 18.5344 16.8719 18.51 16.8719 18.4794C16.8719 18.4489 16.8393 18.4244 16.7986 18.4244C16.7578 18.4244 16.7252 18.4 16.7252 18.3694C16.7252 18.3392 16.7005 18.3145 16.6702 18.3145C16.64 18.3145 16.6152 18.2897 16.6152 18.2595C16.6152 18.2289 16.5826 18.2045 16.5418 18.2045C16.493 18.2045 16.4685 18.18 16.4685 18.1312C16.4685 18.0823 16.444 18.0579 16.3951 18.0579C16.3544 18.0579 16.3218 18.0334 16.3218 18.0029C16.3218 17.9726 16.297 17.9479 16.2668 17.9479C16.2207 17.9479 16.2117 17.8705 16.2117 17.4714C16.2117 17.0722 16.2207 16.9948 16.2668 16.9948C16.3052 16.9948 16.3218 16.9561 16.3218 16.8665C16.3218 16.7627 16.3357 16.7382 16.3951 16.7382C16.4359 16.7382 16.4685 16.7138 16.4685 16.6832C16.4685 16.6527 16.5011 16.6283 16.5418 16.6283C16.5826 16.6283 16.6152 16.6038 16.6152 16.5733C16.6152 16.543 16.64 16.5183 16.6702 16.5183C16.7008 16.5183 16.7252 16.4857 16.7252 16.445C16.7252 16.3839 16.7497 16.3717 16.8719 16.3717C16.9779 16.3717 17.0187 16.3564 17.0187 16.3167C17.0187 16.2864 17.0434 16.2617 17.0737 16.2617C17.1039 16.2617 17.1287 16.2369 17.1287 16.2067C17.1287 16.1762 17.1613 16.1517 17.202 16.1517C17.2428 16.1517 17.2754 16.1273 17.2754 16.0967C17.2754 16.0512 17.3447 16.0418 17.6789 16.0418C18.013 16.0418 18.0823 16.0512 18.0823 16.0967Z " fill="white"/>

  </symbol>
  <!-- Иконка ручного Импорта -->
  <symbol id="IconManualImport" viewBox="0 0 41 37">
    <path fill-rule="evenodd" clip-rule="evenodd" d="M13.0339 0.0869479C11.6201 0.40146 10.5255 1.3785 10.1771 2.63677C10.0972 2.92578 10.0855 4.10366 10.0855 11.8993V20.8307L5.74403 20.8463L1.40258 20.8619L1.10004 20.9897C0.717867 21.1511 0.37872 21.4499 0.172932 21.8064C0.0361233 22.0435 0.0124647 22.1534 0.0117386 22.5565C0.011073 22.9397 0.0374545 23.0782 0.151815 23.2914C0.351491 23.6637 0.781401 24.0326 1.1718 24.1667C1.48753 24.2752 1.63438 24.2787 5.79171 24.2787H10.0855V22.5565V20.8342H16.9366H23.7876L22.113 19.2924C20.3575 17.6763 20.2476 17.547 20.1595 16.9944C20.0675 16.4182 20.4345 15.6991 20.9992 15.3493C21.3497 15.1322 21.6252 15.0569 22.0704 15.0565C22.8362 15.0558 22.6565 14.919 26.4401 18.3828C30.323 21.9376 30.2057 21.8068 30.2026 22.5842C30.1995 23.3432 30.3151 23.2133 26.5861 26.6491C24.3423 28.7166 23.1671 29.7603 22.975 29.8563C22.1838 30.2516 21.3117 30.1336 20.6924 29.5475C20.3282 29.2026 20.1672 28.8401 20.1662 28.3622C20.1646 27.6534 20.2651 27.5223 22.1131 25.8205L23.7271 24.3343H16.9062H10.0855L10.0864 29.1817C10.0874 34.4838 10.0799 34.3622 10.4456 35.0678C10.806 35.7636 11.4121 36.3283 12.1623 36.6675C12.9494 37.0232 12.0478 37.0002 25.1822 36.9995C33.143 36.999 37.2542 36.9796 37.4351 36.9418C37.5849 36.9105 37.9367 36.7833 38.2171 36.6591C38.9344 36.3414 39.5645 35.7615 39.9023 35.1082C40.0353 34.8508 40.1732 34.5278 40.2085 34.3903C40.272 34.1434 40.2904 29.7775 40.2823 16.8757L40.279 11.556H35.0463C29.9257 11.556 29.8055 11.5536 29.4342 11.4416C28.7392 11.2319 28.148 10.7154 27.8641 10.07L27.7236 9.75039L27.7066 4.87519L27.6895 0L20.5364 0.00461129C14.6281 0.00844478 13.3224 0.0227787 13.0339 0.0869479ZM30.2347 4.66685V9.27815H35.2718H40.3089L35.2871 4.66685C32.525 2.13064 30.2583 0.0555578 30.2499 0.0555578C30.2416 0.0555578 30.2347 2.13064 30.2347 4.66685ZM0 22.5565C0 22.7551 0.0110125 22.8364 0.0243847 22.737C0.0378175 22.6377 0.0378175 22.4752 0.0243847 22.3759C0.0110125 22.2766 0 22.3578 0 22.5565Z" fill="white"/>
  </symbol>
  <!-- Иконка Учить -->
  <symbol id="IconLearn" viewBox="0 0 37 37">
    <path fill-rule="evenodd" clip-rule="evenodd" d="M17.2879 0.0154804C13.8146 0.296256 10.858 1.32058 8.08389 3.20424C4.52282 5.62233 1.90438 9.23256 0.70513 13.3779C0.116022 15.4143 -0.114084 17.7009 0.0531548 19.8571C0.557923 26.3646 4.24672 31.961 10.0191 34.9769C11.9776 36.0002 14.2438 36.6819 16.4834 36.9216C17.3579 37.0151 19.3408 37.0275 20.2565 36.9451C21.9497 36.7928 23.9851 36.2806 25.6943 35.5769C27.1865 34.9624 29.1581 33.7402 30.4662 32.6188C34.0604 29.5375 36.285 25.3694 36.8784 20.6044C36.976 19.821 37.0476 16.8702 36.9614 17.1857C36.9191 17.3407 36.9154 17.3347 36.9093 17.1007C36.8971 16.6344 36.7354 15.4911 36.5666 14.6777C35.7838 10.9069 33.7458 7.34172 30.9151 4.79173C28.0225 2.18603 24.5835 0.604437 20.7559 0.119541C20.0913 0.0353254 17.8676 -0.0313804 17.2879 0.0154804ZM15.0242 10.5119C14.5003 10.6992 14.0596 11.1826 13.9321 11.7103C13.8897 11.8857 13.8763 13.9632 13.8874 18.6588L13.9032 25.3572L14.055 25.6455C14.2414 25.9997 14.5304 26.2878 14.8593 26.4473C15.1772 26.6015 15.7561 26.6439 16.096 26.5379C16.4192 26.4372 26.9451 19.9995 27.2132 19.7386C27.3248 19.63 27.483 19.4115 27.5648 19.2529C27.6885 19.013 27.7141 18.8898 27.7166 18.5198C27.7191 18.1452 27.6959 18.0269 27.5694 17.7687C27.4867 17.6002 27.3369 17.3836 27.2364 17.2874C27.0108 17.0715 16.4832 10.6131 16.1851 10.5078C15.9128 10.4115 15.2991 10.4137 15.0242 10.5119ZM0.0274087 18.3253C0.0274087 19.0132 0.0353434 19.2946 0.0451092 18.9506C0.0548194 18.6067 0.0548194 18.0439 0.0451092 17.6999C0.0353434 17.356 0.0274087 17.6374 0.0274087 18.3253Z" fill="white"/>
  </symbol>


  <!-- Иконка кнопки Редактирования модуля -->
  <symbol id="IconModuleEdit" viewBox="0 0 30 30">
    <path fill-rule="evenodd" clip-rule="evenodd" d="M23.0811 0.062369C22.6621 0.144824 22.1834 0.393044 21.7843 0.734803C21.3499 1.10693 18.416 4.08071 18.416 4.14892C18.416 4.17839 20.0863 5.8729 22.1278 7.91449L25.8395 11.6265L27.3634 10.1234C29.1981 8.3137 29.4964 7.98239 29.7285 7.49627C29.9368 7.06002 30 6.77783 30 6.28459C30 5.83433 29.9164 5.48613 29.7007 5.03826C29.5461 4.71741 29.4317 4.59413 27.4364 2.59891C25.3619 0.524566 25.3299 0.495098 24.9517 0.311445C24.3225 0.00591227 23.7535 -0.069874 23.0811 0.062369ZM9.3576 13.165C5.13159 17.386 1.64998 20.8984 1.62063 20.9704C1.59134 21.0423 1.20857 22.8941 0.770041 25.0854C0.142835 28.2198 -0.0209639 29.1112 0.00206893 29.2646C0.0372718 29.4995 0.25516 29.7993 0.475753 29.9165C0.578431 29.9711 0.72668 30 0.903956 30C1.25463 30 8.81202 28.4955 9.06309 28.3756C9.1865 28.3168 11.6569 25.8763 16.8934 20.6402L24.5433 12.9909L20.822 9.23985C18.7753 7.17681 17.0873 5.48919 17.0709 5.48965C17.0546 5.4901 13.5836 8.944 9.3576 13.165Z" fill="#ACA8A8"/>
  </symbol>
  <!-- Иконка кнопки Главный экран -->
  <symbol id="IconMainMenu" viewBox="0 0 38 34">
    <path fill-rule="evenodd" clip-rule="evenodd" d="M18.3842 0.0401831C18.259 0.0702523 18.0255 0.185003 17.8652 0.295094C17.4147 0.604616 0.498784 15.4959 0.364783 15.7009C0.0730043 16.1473 0.00118937 16.3968 5.96938e-05 16.9684C-0.000908598 17.4901 0.00759085 17.5304 0.201949 17.9266C0.432994 18.3973 0.719985 18.6846 1.19687 18.9227L1.50527 19.0767L2.86357 19.0953L4.22187 19.1139V25.47C4.22187 31.683 4.22429 31.8342 4.32994 32.1787C4.45877 32.5987 4.78918 33.1161 5.09989 33.3844C5.22351 33.4911 5.50491 33.6683 5.72519 33.778L6.1258 33.9777L9.36559 33.9932C12.5419 34.0085 12.6121 34.0065 12.9457 33.8942C13.738 33.6276 14.3333 33.0284 14.6393 32.1898C14.7303 31.9406 14.7404 31.6417 14.7653 28.4515L14.7924 24.984L14.9584 24.6319C15.2426 24.0291 15.8018 23.5777 16.4331 23.4415C16.643 23.3962 17.4404 23.3827 19.1779 23.3952L21.6267 23.4129L21.9757 23.586C22.4199 23.8062 22.7936 24.1827 23.0124 24.63L23.1842 24.9815L23.2113 28.4502C23.2379 31.8615 23.2403 31.9242 23.357 32.2357C23.6687 33.068 24.3174 33.6949 25.1012 33.9213C25.3681 33.9984 25.7896 34.007 28.6276 33.9932L31.8508 33.9777L32.2514 33.778C32.4717 33.6683 32.7531 33.4911 32.8767 33.3844C33.1805 33.1222 33.5035 32.6217 33.6559 32.1771L33.7817 31.8106L33.7787 25.4622L33.7758 19.1138L35.0967 19.0962L36.4176 19.0786L36.7403 18.9197C38.0212 18.2891 38.4094 16.6319 37.512 15.6262C37.413 15.5154 36.5453 14.7273 35.5838 13.8749L33.8355 12.3251L33.8086 8.08972C33.7821 3.92366 33.7798 3.84932 33.6663 3.54728C33.4327 2.92596 33.0049 2.48586 32.3948 2.2393C32.1434 2.13771 31.9789 2.12368 30.8205 2.10493C29.412 2.08212 29.0552 2.11983 28.6105 2.3386C28.2413 2.52027 27.8272 2.94107 27.6404 3.32449L27.4878 3.63765L27.4609 5.15069L27.434 6.66374L23.9105 3.5379C19.8765 -0.0407601 19.9759 0.0324355 19.1109 0.00263728C18.8363 -0.00684399 18.5093 0.0100598 18.3842 0.0401831Z" fill="#ACA8A8"/>
  </symbol>
  <!-- Иконка кнопки Бургерного меню (fas fa-bars) -->
  <symbol id="IconBurgerMenu" viewBox="0 0 30 30">
    <path fill-rule="evenodd" clip-rule="evenodd" d="M1.60525 25.9302C0.530623 25.6601 -0.162103 24.5826 0.037213 23.491C0.162381 22.8055 0.6631 22.141 1.276 21.8471L1.60525 21.6891L14.8895 21.6766L28.1737 21.6641L28.4738 21.7656C29.2447 22.0265 29.7635 22.6126 29.9308 23.4115C30.0084 23.7823 30.0196 24.1601 29.9567 24.283C29.9329 24.3295 29.8526 24.5205 29.7783 24.7074C29.5375 25.3132 28.9438 25.8029 28.2786 25.9447C27.8909 26.0273 1.93536 26.0132 1.60525 25.9302ZM0.00975593 23.9049C0.00975593 23.7308 0.0185076 23.6596 0.0291346 23.7466C0.0398097 23.8337 0.0398097 23.9762 0.0291346 24.0632C0.0185076 24.1502 0.00975593 24.079 0.00975593 23.9049ZM1.43565 15.0283C-0.0745868 14.5068 -0.494618 12.5403 0.664975 11.4202C0.982102 11.1138 1.33241 10.9276 1.73263 10.8527C1.90482 10.8204 6.47534 10.8081 15.1195 10.8165L28.2449 10.8293L28.5334 10.9465C28.9233 11.1049 29.1355 11.246 29.3984 11.5221C29.6488 11.7849 29.8682 12.2149 29.9469 12.597C30.0131 12.9187 30.0159 13.3703 29.9519 13.4103C29.9255 13.4269 29.9038 13.48 29.9038 13.5284C29.9038 13.5768 29.8273 13.7712 29.7338 13.9605C29.5511 14.3304 29.1747 14.7258 28.841 14.8982C28.3481 15.1529 29.1385 15.1392 14.927 15.1379L1.74951 15.1366L1.43565 15.0283ZM0.0101406 13.0208C0.0103811 12.8333 0.0190365 12.7625 0.0294712 12.8636C0.0398577 12.9646 0.0397135 13.118 0.0290865 13.2044C0.0184595 13.2909 0.00994828 13.2082 0.0101406 13.0208ZM1.4167 4.17691C1.07183 4.05677 0.803944 3.87591 0.537643 3.58333C-0.0643445 2.9219 -0.167296 1.97569 0.272017 1.14191C0.456811 0.791185 0.924255 0.330982 1.26865 0.16078L1.55716 0.0181904L14.8757 0.00567436C28.1727 -0.00684166 28.1947 -0.00669479 28.4892 0.0925522C29.4176 0.405441 30 1.26166 30 2.31365C30 2.45731 29.9784 2.57487 29.9519 2.57487C29.9255 2.57487 29.9038 2.61325 29.9038 2.6601C29.9037 2.83293 29.6029 3.38541 29.384 3.61469C29.0987 3.9136 28.8811 4.05507 28.5146 4.18013C28.2248 4.27899 28.1794 4.27933 14.9627 4.27772C1.74994 4.27607 1.70036 4.27572 1.4167 4.17691ZM0.0101406 2.20963C0.0103811 2.02214 0.0190365 1.95143 0.0294712 2.05243C0.0398577 2.15348 0.0397135 2.30688 0.0290865 2.39332C0.0184595 2.47981 0.00994828 2.39712 0.0101406 2.20963Z"/>
  </symbol>
  <!-- Иконка кнопки Бургерного меню (fas fa-bars) -->
  <symbol id="IconRocket" viewBox="0 0 104 102">
    <path d="M93.526 0H99.6666L102.265 0.465753L102.973 1.16438L103.445 3.49315V10.2466L102.973 13.9726L102.265 17.6986L100.848 23.0548L98.9581 28.411L97.541 31.9041L95.6516 36.0959L93.7622 40.0548L91.4004 44.2466L89.2748 47.7397L85.9684 52.6301L83.6066 55.6575L83.3704 56.1233H82.8981L82.4257 57.0548L81.0087 58.9178H80.5363L80.0639 59.8493L77.9384 61.9452L76.7575 63.1096L74.3957 65.4384H73.9234V65.9041L71.5616 67.7671H71.0892V68.2329L68.0189 70.3288V76.3836L67.5466 80.1096L66.6019 83.6027L64.9486 87.3288L63.0592 90.1233H62.5869L62.1145 91.0548L60.2251 93.1507L56.9186 95.7123L53.8483 97.5753L49.8333 99.4384L43.9289 101.301L40.3862 102H38.4968L37.0798 100.836V97.3425L38.9692 80.3425L39.2054 79.8767L35.1903 79.6438L33.3009 79.1781L31.8839 78.2466L23.3815 69.863L22.9092 68.9315L22.4368 64.9726V63.3425L21.7283 63.5753L4.48736 65.4384H1.18088L0.236177 64.5069L0 64.0411V61.7123L1.18088 56.8219L2.59795 52.863L4.01501 49.6027L5.90442 46.5753L7.79384 44.0137L9.91943 41.6849L12.045 39.8219L15.3515 37.726L17.7133 36.5616L21.9644 35.3973L25.7433 34.9315H32.1201L34.2456 31.9041H34.718L35.1903 30.9726L36.6074 29.1096H37.0798V28.6438H37.5521L38.0245 27.7123L43.2204 22.589H43.6927V22.1233L46.9992 19.5616L47.9439 18.863H48.4163V18.3973L51.9589 16.0685L55.9739 13.5068L59.5166 11.411L62.823 9.78082L66.6019 7.91781L71.3254 5.82192L74.8681 4.42466L82.1895 2.09589L88.094 0.69863L90.9281 0.232877L93.526 0ZM65.8933 23.9863L63.0592 25.1507L61.1698 26.3151V26.7808H60.6974V27.2466H60.2251V27.7123H59.7527L58.3357 30.0411L57.391 33.0685V36.0959L58.3357 39.1233L59.9889 41.6849L62.1145 43.5479L64.9486 44.9452L66.8381 45.411H69.9083L72.9786 44.4795L75.3404 43.0822V42.6164H75.8128V42.1507H76.2851V41.6849H76.7575L78.6469 38.4247L79.1192 37.0274V32.3699L78.1745 29.8082L76.7575 27.7123L74.8681 25.8493L71.5616 24.2192L70.6169 23.9863H65.8933Z" fill="white"/>
  <path d="M16.296 69.1643H18.6578L19.1302 69.6301V70.7944L18.4216 71.4931L17.0046 75.2191L16.7684 76.3835V79.4109L17.7131 81.7397L18.6578 83.1369L20.0749 84.3013L21.9643 85.2328L22.909 85.4657H25.7431L29.0496 84.767L31.1752 83.6027L31.6475 83.1369H32.8284L33.3008 83.6027V85.9314L32.1199 89.1917L30.4666 91.5205L29.0496 93.1506L26.6878 94.5479L22.909 95.9451L17.9493 97.1095L13.2257 97.8081L5.66807 98.5068H3.54248V95.9451L4.25101 88.9588L4.95954 84.0684L6.3766 78.4794L8.26602 74.2876L9.91926 72.4246L12.9896 70.3287L16.296 69.1643Z" fill="white"/>
  </symbol>
  <symbol id="IconPlus" viewBox="0 0 69 69">
    <path fill-rule="evenodd" clip-rule="evenodd" d="M32.1857 1.10959C30.1602 1.83528 28.7469 3.23127 27.9715 5.27258C27.5791 6.30583 27.5532 7.03652 27.5532 17.1156V27.8573L16.5324 27.9192L5.51151 27.9811L4.27066 28.5906C2.73751 29.3437 1.44172 30.7779 0.827374 32.402C-0.303159 35.3909 1.21414 39.2057 4.12798 40.7001C5.5595 41.4341 7.43836 41.5533 17.6088 41.5548L27.5345 41.5566L27.5982 52.5798L27.6618 63.6031L28.247 64.7126C29.0568 66.248 30.7893 67.7572 32.2193 68.1729C35.1243 69.0176 37.4663 68.4108 39.3387 66.3277C39.3753 66.287 39.4111 66.2473 39.4461 66.2084C39.7853 65.8321 40.0551 65.5327 40.2703 65.1982C41.1078 63.897 41.1199 62.0644 41.1795 53.1027L41.1843 52.3754L41.2566 41.5822L52.049 41.5062L52.6363 41.5021C61.7706 41.4382 63.5911 41.4254 64.8781 40.5902C65.1985 40.3823 65.4858 40.1235 65.8446 39.8002L65.8751 39.7728L65.9375 39.7166C68.2437 37.6427 68.8924 34.2743 67.5084 31.5607C66.9512 30.4684 65.5175 29.0952 64.3044 28.4922L63.276 27.9811L52.2551 27.9175L41.2343 27.8539V17.803C41.2343 5.41876 41.1474 4.81297 39.0772 2.74212C37.2928 0.95733 34.4743 0.289634 32.1857 1.10959Z" fill="#ACA8A8"/>
  </symbol>
  <symbol id="IconSearch" viewBox="0 0 28 28">
    <path fill-rule="evenodd" clip-rule="evenodd" d="M10.7768 0.0194897C9.44602 0.101795 7.90446 0.540489 6.63328 1.19868C3.69183 2.72172 1.5232 5.56804 0.815523 8.8345C0.602407 9.81816 0.569422 10.157 0.568853 11.3681C0.568284 12.5816 0.612249 12.9977 0.853795 14.0637C1.54769 17.1259 3.61801 19.8871 6.37645 21.4289C7.99699 22.3347 9.64827 22.757 11.5699 22.7573C13.678 22.7575 15.5163 22.2256 17.3172 21.0942L17.72 20.8412L21.0201 24.249C24.4899 27.832 24.4285 27.7744 24.9479 27.9337C25.2237 28.0184 25.8763 28.0228 26.1342 27.9419C26.7986 27.7334 27.3535 27.1685 27.5542 26.4966C27.7186 25.9462 27.6437 25.2276 27.3705 24.7331C27.2981 24.6021 26.1162 23.348 23.9842 21.1399L20.7092 17.7479L20.9605 17.3127C21.551 16.29 21.988 15.2036 22.2461 14.1167C22.9861 11.0003 22.4417 7.7488 20.7405 5.12265C20.259 4.37951 19.9286 3.96508 19.2982 3.31405C17.4559 1.41132 15.1295 0.284868 12.5256 0.0347563C12.1168 -0.00448261 11.2824 -0.0118005 10.7768 0.0194897ZM12.7169 4.49479C15.2028 4.95544 17.2765 6.87301 17.9956 9.37611C18.2095 10.1208 18.2557 10.4843 18.2566 11.4312C18.2573 12.1721 18.2444 12.3554 18.165 12.7349C17.635 15.2685 15.9665 17.2122 13.6134 18.0373C12.902 18.2868 12.4896 18.3478 11.5089 18.3487C10.7251 18.3494 10.5599 18.3374 10.1771 18.2523C8.8497 17.957 7.76988 17.3647 6.80077 16.4005C5.40384 15.0105 4.66936 13.0964 4.74867 11.0527C4.88215 7.6117 7.48526 4.78027 10.8581 4.40723C11.3254 4.35554 12.1837 4.39596 12.7169 4.49479Z" fill="#ACA8A8"/>
  </symbol>
  <symbol id="IconPlusCard" viewBox="0 0 37 37">
    <path fill-rule="evenodd" clip-rule="evenodd" d="M17.3126 0.0155014C12.8859 0.372753 9.03964 2.03402 5.91293 4.93922C4.72369 6.04421 3.62192 7.37601 2.76592 8.74344C1.95749 10.0348 1.14416 11.8638 0.706135 13.3754C0.116187 15.4113 -0.114246 17.6975 0.0532306 19.8533C0.556828 26.3352 4.2326 31.9254 9.97371 34.9406C11.5595 35.7734 13.2397 36.3505 15.1455 36.7168C17.1094 37.0944 19.9051 37.0944 21.869 36.7168C24.2688 36.2556 26.4015 35.4225 28.3763 34.1751C33.1707 31.1467 36.2784 26.1951 36.9308 20.5449C37.044 19.564 37.0132 17.1116 36.8753 16.1265C36.2529 11.6817 34.1768 7.69436 30.9862 4.81595C28.0726 2.18747 24.6481 0.611458 20.7806 0.119431C20.1198 0.0353425 17.8933 -0.031406 17.3126 0.0155014ZM19.2519 9.98837C19.5501 10.1286 19.919 10.4807 20.0626 10.7621C20.2592 11.1476 20.2854 11.5512 20.2854 14.1891V16.7608L23.1054 16.7771L25.9254 16.7934L26.1885 16.9242C27.3217 17.4874 27.5389 18.9577 26.612 19.7912C26.1452 20.211 26.1412 20.2114 23.0324 20.2114H20.2911L20.2726 23.0042C20.2515 26.1898 20.2644 26.0957 19.7765 26.6297C19.3286 27.1198 18.667 27.2826 17.9671 27.0747C17.6111 26.9689 17.1657 26.5777 16.9622 26.192L16.8125 25.9081L16.7962 23.0597L16.78 20.2114H14.0061C11.3698 20.2114 11.2175 20.2059 10.9357 20.1004C10.5813 19.9678 10.2179 19.6271 10.0167 19.2388C9.89814 19.0099 9.87219 18.8825 9.86969 18.5163C9.86714 18.1389 9.89003 18.0241 10.0212 17.757C10.199 17.3948 10.5192 17.0827 10.8879 16.9122C11.1379 16.7965 11.2192 16.7929 13.9647 16.7771L16.7847 16.7608V14.05C16.7847 11.0509 16.7917 10.9814 17.1352 10.5309C17.6329 9.87822 18.529 9.64852 19.2519 9.98837Z" fill="#ACA8A8"/>
  </symbol>
  <symbol id="IconRubbishBin" viewBox="0 0 16 18">
    <path fill-rule="evenodd" clip-rule="evenodd" d="M5.29773 0.0366331C5.12306 0.0980168 5.03419 0.212542 4.79192 0.688418L4.56345 1.13717H2.49862C0.692894 1.13717 0.421834 1.14207 0.33878 1.1763C0.206443 1.23081 0.13085 1.30602 0.0604378 1.45319C0.00166672 1.57606 0 1.5983 0 2.24956C0 2.89952 0.00179493 2.92334 0.0601814 3.04697C0.093285 3.11705 0.15739 3.20513 0.202673 3.24267C0.389961 3.39808 -0.165339 3.38827 8.05192 3.38111L15.5513 3.37459L15.6575 3.31857C15.7918 3.24773 15.9317 3.08782 15.9702 2.96103C15.9895 2.89778 16 2.63409 16 2.21646C16 1.59977 15.9974 1.56539 15.9445 1.47359C15.8712 1.34662 15.7742 1.2435 15.6795 1.1918C15.6101 1.15393 15.3971 1.14857 13.5127 1.13717L11.4229 1.12453L11.1922 0.677952C11.0652 0.432316 10.9383 0.20602 10.9101 0.17505C10.8819 0.14408 10.8011 0.0920251 10.7306 0.0593612L10.6024 0L7.99974 0.000859575C5.85239 0.00156746 5.37971 0.00781202 5.29773 0.0366331ZM0.0107439 2.24956C0.0107439 2.63194 0.0143082 2.78838 0.0186673 2.59718C0.0230007 2.406 0.0230007 2.09314 0.0186673 1.90194C0.0143082 1.71076 0.0107439 1.86717 0.0107439 2.24956ZM1.15337 4.58967C1.15337 4.90989 1.90232 16.4808 1.93383 16.6474C2.04825 17.2524 2.56418 17.7976 3.16582 17.9493C3.36326 17.9991 3.44739 18 7.99795 18C12.6013 18 12.6303 17.9997 12.8205 17.9477C13.3966 17.7903 13.8608 17.3362 14.0286 16.7658C14.0709 16.6221 14.1355 15.6982 14.4622 10.5672C14.6733 7.25089 14.8461 4.529 14.8461 4.51858C14.8461 4.50817 11.7652 4.49962 7.99974 4.49962H1.15337V4.58967Z" fill="white"/>
  </symbol>
  <symbol id="IconCardPlus" viewBox="0 0 38 37">
    <path fill-rule="evenodd" clip-rule="evenodd" d="M17.4023 0.189502C16.2916 0.585652 15.5165 1.34772 15.0913 2.46206C14.8761 3.02611 14.8619 3.42499 14.8619 8.9271V14.791L8.8182 14.8248L2.77449 14.8586L2.09403 15.1913C1.25327 15.6024 0.542669 16.3853 0.205769 17.2719C-0.414202 18.9035 0.417865 20.986 2.01578 21.8018C2.80081 22.2025 3.83116 22.2676 9.40852 22.2684L14.8517 22.2693L14.8866 28.2869L14.9214 34.3044L15.2424 34.9101C15.6865 35.7483 16.6365 36.5721 17.4207 36.7991C19.0138 37.2602 20.2981 36.9289 21.3249 35.7918C21.345 35.7696 21.3646 35.7479 21.3838 35.7266C21.5698 35.5212 21.7178 35.3578 21.8358 35.1752C22.2951 34.4649 22.3017 33.4645 22.3344 28.5723L22.337 28.1753L22.3767 22.2833L28.2951 22.2418L28.6172 22.2396C33.6263 22.2047 34.6247 22.1977 35.3305 21.7418C35.5061 21.6283 35.6637 21.487 35.8604 21.3106L35.8772 21.2956L35.9114 21.2649C37.1761 20.1328 37.5318 18.294 36.7729 16.8126C36.4673 16.2163 35.6811 15.4667 35.0158 15.1376L34.4518 14.8586L28.4081 14.8238L22.3644 14.7891V9.30238C22.3644 2.54186 22.3168 2.21116 21.1815 1.08069C20.203 0.106384 18.6574 -0.258109 17.4023 0.189502Z" fill="#ACA8A8"/>
  </symbol>
</svg>